<?xml version="1.0" encoding="UTF-8"?>
<svg id="HBO_Max_Logo" data-name="HBO Max Logo" xmlns="http://www.w3.org/2000/svg" xmlns:xlink="http://www.w3.org/1999/xlink" viewBox="0 0 382.08 279.2">
  <defs>
    <style>
      .cls-1 {
        fill: none;
      }

      .cls-2 {
        fill: #fff;
      }

      .cls-3 {
        clip-path: url(#clippath);
      }
    </style>
    <clipPath id="clippath">
      <rect class="cls-1" x="2.43" y="175.16" width="365.28" height="99.41"/>
    </clipPath>
  </defs>
  <path id="HBO_Max_Logo-2" data-name="HBO Max Logo" class="cls-2" d="M71.81,5.17v56.56h-26.81V5.17H2.43v152.05h42.57v-58.99h26.81v58.99h41.3V5.17h-41.3ZM302.42,49.56c-16.8,0-30.42,13.63-30.42,30.43s13.62,30.43,30.42,30.43,30.43-13.62,30.43-30.43-13.62-30.43-30.43-30.43ZM302.4,2.63c-42.55-.03-64.29,31.29-69.66,43.93.05-18.98-18.66-41.38-40.54-41.4h-70.5v152.06h65.73c26.5,0,45.35-22.95,45.39-42.64,6.05,12.39,27.03,43.41,69.58,43.4,42.6-.02,77.27-35.41,77.26-78.02-.01-43.51-34.66-77.3-77.26-77.33ZM181.92,121.81h-20.91v-25.7h20.91c6.08,0,10.87,6.01,10.87,12.85s-4.79,12.85-10.87,12.85ZM182,64.71h-20.91v-25.7h20.91c6.08,0,10.87,6.01,10.87,12.85s-4.79,12.85-10.87,12.85ZM209.82,79.99c4.79-.61,12.78-6.08,15.59-9.58-.99,4.34-1.06,16.88.09,21.21-3.21-4.94-10.81-11.02-15.68-11.63ZM302.42,118.7c-21.37,0-38.7-17.33-38.7-38.71s17.33-38.71,38.7-38.71,38.71,17.33,38.71,38.71-17.33,38.71-38.71,38.71ZM302.42,49.56c-16.8,0-30.42,13.63-30.42,30.43s13.62,30.43,30.42,30.43,30.43-13.62,30.43-30.43-13.62-30.43-30.43-30.43ZM302.42,49.56c-16.8,0-30.42,13.63-30.42,30.43s13.62,30.43,30.42,30.43,30.43-13.62,30.43-30.43-13.62-30.43-30.43-30.43Z"/>
  <g class="cls-3">
    <path class="cls-2" d="M141.53,273.79v-59.49c0-26.27-7.17-39.14-28.86-39.14-12.23,0-25.28,10.47-32.46,17-3.58-11.33-11.57-17-25.92-17-10.93,0-22.35,8.24-29.68,14.59v-11.99H2.43v96.03h22.18v-64.64c7.17-6.35,17.61-14.08,25.43-14.08,9.3,0,10.77,7.21,10.77,19.23v59.49h22.18v-59.49c0-1.72,0-3.44-.17-4.98,7.18-6.35,17.78-14.25,25.61-14.25,9.29,0,10.76,7.21,10.76,19.23v59.49h22.34Z"/>
    <path class="cls-2" d="M326.08,224.45c14.67-13.94,27.91-29.51,39.26-46.69h-27.91c-6.85,11.72-15.13,21.83-25.3,32.34-10.17-10.51-19.16-20.62-25.31-32.34h-27.91c11.36,17.18,24.6,32.75,39.26,46.69-15.6,14.56-29.32,31.13-41.62,49.32h27.91c7.56-12.73,16.79-23.65,27.67-34.76,10.88,11.11,20.1,22.03,27.67,34.76h27.91c-12.3-18.19-26.02-34.76-41.63-49.32"/>
    <path class="cls-2" d="M199.5,253.68c-16.07,0-29.11-13.03-29.11-29.11s13.03-29.1,29.11-29.1,29.11,13.03,29.11,29.1-13.03,29.11-29.11,29.11M228.37,177.76v11.61c-8.41-9.71-19.18-14.21-31.61-14.21-25.79,0-47.19,22.18-47.19,49.71s21.4,49.7,47.19,49.7c12.43,0,23.2-4.5,31.61-14.21v13.43h22.18v-96.03h-22.18Z"/>
  </g>
</svg>